<svg xmlns="http://www.w3.org/2000/svg" viewBox="0 0 64 64">
  <defs>
    <linearGradient id="pineapple-bg" x1="0%" y1="0%" x2="100%" y2="100%">
      <stop offset="0%" stop-color="#fef3c7"/>
      <stop offset="100%" stop-color="#fde68a"/>
    </linearGradient>
  </defs>
  <circle cx="32" cy="32" r="32" fill="#fbbf24"/>
  <!-- pineapple leaves -->
  <path d="M32 8 L36 20 L32 18 L28 20 Z" fill="#15803d"/>
  <path d="M32 8 L40 16 L38 20 L32 16 Z" fill="#166534"/>
  <path d="M32 8 L44 22 L40 24 L32 18 Z" fill="#15803d"/>
  <path d="M32 8 L24 16 L26 20 L32 16 Z" fill="#166534"/>
  <path d="M32 8 L20 22 L24 24 L32 18 Z" fill="#15803d"/>
  <!-- pineapple body -->
  <ellipse cx="32" cy="36" rx="18" ry="20" fill="url(#pineapple-bg)" stroke="#d97706" stroke-width="1"/>
  <path d="M18 28 Q20 32 18 36 Q20 40 18 44" fill="none" stroke="#ca8a04" stroke-width="1.5" opacity="0.8"/>
  <path d="M32 24 Q34 32 32 40 Q34 48 32 52" fill="none" stroke="#ca8a04" stroke-width="1.5" opacity="0.8"/>
  <path d="M46 28 Q44 32 46 36 Q44 40 46 44" fill="none" stroke="#ca8a04" stroke-width="1.5" opacity="0.8"/>
  <path d="M22 32 Q28 34 34 32 Q40 34 46 32" fill="none" stroke="#ca8a04" stroke-width="1" opacity="0.6"/>
  <path d="M22 40 Q28 42 34 40 Q40 42 46 40" fill="none" stroke="#ca8a04" stroke-width="1" opacity="0.6"/>
  <!-- face -->
  <ellipse cx="26" cy="34" rx="3" ry="4" fill="#1e293b"/>
  <ellipse cx="38" cy="34" rx="3" ry="4" fill="#1e293b"/>
  <path d="M26 42 Q32 48 38 42" stroke="#1e293b" stroke-width="2" fill="none" stroke-linecap="round"/>
</svg>
