<svg xmlns="http://www.w3.org/2000/svg" viewBox="0 0 64 64">
  <circle cx="32" cy="32" r="32" fill="#fef3c7"/>
  <!-- pot -->
  <path d="M20 52 L44 52 L48 40 L16 40 Z" fill="#78716c"/>
  <ellipse cx="32" cy="40" rx="16" ry="4" fill="#57534e"/>
  <!-- cactus body -->
  <path d="M28 40 L36 40 L36 24 L28 24 Z" fill="#22c55e" stroke="#16a34a" stroke-width="1"/>
  <path d="M30 40 L30 28 L22 32 L30 36 Z" fill="#4ade80" stroke="#16a34a" stroke-width="1"/>
  <path d="M34 40 L34 28 L42 32 L34 36 Z" fill="#4ade80" stroke="#16a34a" stroke-width="1"/>
  <!-- spines -->
  <line x1="30" y1="30" x2="32" y2="28" stroke="#15803d" stroke-width="1"/>
  <line x1="34" y1="30" x2="32" y2="28" stroke="#15803d" stroke-width="1"/>
  <!-- face -->
  <ellipse cx="30" cy="22" rx="2" ry="2.5" fill="#1e293b"/>
  <ellipse cx="34" cy="22" rx="2" ry="2.5" fill="#1e293b"/>
  <path d="M28 26 Q32 30 36 26" stroke="#1e293b" stroke-width="1.5" fill="none" stroke-linecap="round"/>
</svg>
